<?xml version="1.0" encoding="UTF-8" standalone="no"?>
<!-- Created with Inkscape (http://www.inkscape.org/) -->

<svg
   version="1.1"
   id="svg2"
   width="28.740126"
   height="28.740126"
   viewBox="0 0 28.740126 28.740126"
   xmlns="http://www.w3.org/2000/svg"
   xmlns:svg="http://www.w3.org/2000/svg"
   xmlns:rdf="http://www.w3.org/1999/02/22-rdf-syntax-ns#"
   xmlns:cc="http://creativecommons.org/ns#"
   xmlns:dc="http://purl.org/dc/elements/1.1/">
  <metadata
     id="metadata8">
    <rdf:RDF>
      <cc:Work
         rdf:about="">
        <dc:format>image/svg+xml</dc:format>
        <dc:type
           rdf:resource="http://purl.org/dc/dcmitype/StillImage" />
      </cc:Work>
    </rdf:RDF>
  </metadata>
  <defs
     id="defs6" />
  <g
     id="layer1"
     style="display:inline">
    <g
       id="layer4"
       style="display:inline">
      <rect
         style="display:inline;fill:#1f7fdb;fill-opacity:1;stroke:none;stroke-width:3.57115;stroke-miterlimit:4;stroke-dasharray:none;stroke-opacity:1"
         id="rect817-5"
         width="22.819572"
         height="21.904638"
         x="2.9239759"
         y="3.8768768"
         ry="0.9472276" />
    </g>
    <g
       id="layer3"
       style="display:inline">
      <rect
         style="display:inline;fill:#4dabf5;fill-opacity:1;stroke:none;stroke-width:3.57115;stroke-miterlimit:4;stroke-dasharray:none;stroke-opacity:1"
         id="rect817-7"
         width="22.819572"
         height="21.904638"
         x="2.9317887"
         y="3.0349438"
         ry="0.9472276" />
    </g>
    <g
       id="layer2"
       style="display:inline">
      <rect
         style="fill:#2196f3;fill-opacity:1;stroke:none;stroke-width:3.57115;stroke-miterlimit:4;stroke-dasharray:none;stroke-opacity:1"
         id="rect817"
         width="22.819572"
         height="21.904638"
         x="2.9238882"
         y="3.4130721"
         ry="0.9472276" />
    </g>
    <g
       id="g_buds3pro"
       transform="translate(3.2,3)">
      <g
         id="buds_outline"
         transform="matrix(0.028,0,0,0.028,0,2.3819521)">
        <path
           d="m 533.65284,105.48235 c 1.1,0.261 5.15,1.181 9,2.045 26.458,5.933 56.753,23.81 80.425,47.458 9.66,9.649 18.517,20.965 23.27,29.731 2.431,4.48 3.12,5.037 7,5.657 6.828,1.09 24.378,9.034 33.485,15.157 13.691,9.204 23.31,21.265 29.387,36.85 2.056,5.27 2.341,7.702 2.343,20 0.002,13.267 -0.167,14.471 -3.235,23 -9.066,25.208 -24.933,46.458 -40.852,54.714 -13.343,6.919 -19.143,8.271 -34.823,8.116 -12.76,-0.126 -14.818,-0.411 -23.237,-3.215 -11.113,-3.702 -20.573,-8.4 -29.07,-14.438 l -6.307,-4.482 -9.693,0.502 c -6.715,0.348 -12.612,-0.019 -19.193,-1.194 -5.225,-0.933 -10.962,-1.927 -12.75,-2.209 l -3.25,-0.513 v 91.08 91.079 l -3.042,6.28 c -1.672,3.454 -3.585,7.368 -4.25,8.698 -1.398,2.799 -5.768,5.431 -13.644,8.219 -3.06,1.083 -6.271,2.348 -7.135,2.812 -0.863,0.464 -4.629,2.068 -8.368,3.563 -9.653,3.862 -13.894,3.258 -23.561,-3.354 -13.924,-9.525 -17.457,-12.588 -19.75,-17.128 l -2.25,-4.454 v -119.859 -119.859 l -7.369,-11.179 c -7.8,-11.832 -13.392,-24.437 -16.176,-36.459 -1.959,-8.463 -1.65,-30.272 0.549,-38.72 2.942,-11.301 7.899,-24.702 10.913,-29.5 0.518,-0.825 2.984,-4.888 5.478,-9.029 7.605,-12.622 23.845,-27.228 36.105,-32.472 12.859,-5.5 18.667,-6.722 33.5,-7.051 7.975,-0.176 15.4,-0.107 16.5,0.154"
           style="display:inline;fill:none;fill-rule:evenodd;stroke:#ffffff;stroke-width:25;stroke-linecap:round;stroke-linejoin:round"
           id="path1-2" />
        <path
           style="display:inline;fill:none;fill-opacity:1;stroke:#ffffff;stroke-width:12.5;stroke-linecap:round;stroke-linejoin:bevel;stroke-dasharray:none;stroke-opacity:1"
           d="M 489.697,209.80278 V 377.39842"
           id="path9-4" />
        <path
           id="rect10"
           style="fill:#ffffff;stroke:#ffffff;stroke-width:6.04454;stroke-linecap:round;stroke-linejoin:round"
           transform="matrix(-0.58655315,-0.80991074,0.93305149,-0.35974285,0,0)"
           d="m -356.01971,278.73489 h 16.56293 c 3.75171,0 6.77204,3.02033 6.77204,6.77204 0,3.75171 -3.02033,6.77204 -6.77204,6.77204 h -16.56293 c -3.75171,0 -6.77204,-3.02033 -6.77204,-6.77204 0,-3.75171 3.02033,-6.77204 6.77204,-6.77204 z" />
        <path
           style="fill:#ffffff;fill-opacity:1;stroke:#ffffff;stroke-width:12.5;stroke-linecap:round;stroke-linejoin:round;stroke-dasharray:none;stroke-opacity:1;paint-order:normal"
           d="M 580.74971,316.10089 C 568.5829,261.68686 590.88285,220.78034 642.69167,191.65893 591.5326,220.59658 566.5975,260.43439 580.74971,316.10089 Z"
           id="path13" />
        <path
           id="path14"
           style="fill:none;stroke:#ffffff;stroke-width:12.2116;stroke-linecap:round;stroke-linejoin:round"
           transform="matrix(0.97520822,0.22128925,-0.41510829,0.90977201,0,0)"
           d="m 763.10468,136.42346 a 23.39325,33.368073 0 0 1 -23.39325,33.36807 23.39325,33.368073 0 0 1 -23.39325,-33.36807 23.39325,33.368073 0 0 1 23.39325,-33.36807 23.39325,33.368073 0 0 1 23.39325,33.36807 z" />
        <path
           d="m 264.20879,105.48235 c -1.1,0.261 -5.15,1.181 -9,2.045 -26.458,5.933 -56.753,23.81 -80.425,47.458 -9.66,9.649 -18.517,20.965 -23.27,29.731 -2.431,4.48 -3.12,5.037 -7,5.657 -6.828,1.09 -24.378,9.034 -33.485,15.157 -13.691,9.204 -23.31,21.265 -29.387,36.85 -2.056,5.27 -2.341,7.702 -2.343,20 -0.002,13.267 0.167,14.471 3.235,23 9.066,25.208 24.933,46.458 40.852,54.714 13.343,6.919 19.143,8.271 34.823,8.116 12.76,-0.126 14.818,-0.411 23.237,-3.215 11.113,-3.702 20.573,-8.4 29.07,-14.438 l 6.307,-4.482 9.693,0.502 c 6.715,0.348 12.612,-0.019 19.193,-1.194 5.225,-0.933 10.962,-1.927 12.75,-2.209 l 3.25,-0.513 v 91.08 91.079 l 3.042,6.28 c 1.672,3.454 3.585,7.368 4.25,8.698 1.398,2.799 5.768,5.431 13.644,8.219 3.06,1.083 6.271,2.348 7.135,2.812 0.863,0.464 4.629,2.068 8.368,3.563 9.653,3.862 13.894,3.258 23.561,-3.354 13.924,-9.525 17.457,-12.588 19.75,-17.128 l 2.25,-4.454 v -119.859 -119.859 l 7.369,-11.179 c 7.8,-11.832 13.392,-24.437 16.176,-36.459 1.959,-8.463 1.65,-30.272 -0.549,-38.72 -2.942,-11.301 -7.899,-24.702 -10.913,-29.5 -0.518,-0.825 -2.984,-4.888 -5.478,-9.029 -7.605,-12.622 -23.845,-27.228 -36.105,-32.472 -12.859,-5.5 -18.667,-6.722 -33.5,-7.051 -7.975,-0.176 -15.4,-0.107 -16.5,0.154"
           style="display:inline;fill:none;fill-rule:evenodd;stroke:#ffffff;stroke-width:25;stroke-linecap:round;stroke-linejoin:round"
           id="path1-2-3" />
        <path
           style="display:inline;fill:none;fill-opacity:1;stroke:#ffffff;stroke-width:12.5;stroke-linecap:round;stroke-linejoin:bevel;stroke-dasharray:none;stroke-opacity:1"
           d="M 308.16463,209.80278 V 377.39842"
           id="path9-4-5" />
        <path
           id="rect10-8"
           style="fill:#ffffff;stroke:#ffffff;stroke-width:6.04454;stroke-linecap:round;stroke-linejoin:round"
           transform="matrix(0.58655315,-0.80991074,-0.93305149,-0.35974285,0,0)"
           d="m -59.106523,-389.72366 h 16.562924 c 3.75171,0 6.77204,3.02033 6.77204,6.77204 0,3.75171 -3.02033,6.77204 -6.77204,6.77204 h -16.562924 c -3.75171,0 -6.77204,-3.02033 -6.77204,-6.77204 0,-3.75171 3.02033,-6.77204 6.77204,-6.77204 z" />
        <path
           style="fill:#ffffff;fill-opacity:1;stroke:#ffffff;stroke-width:12.5;stroke-linecap:round;stroke-linejoin:round;stroke-dasharray:none;stroke-opacity:1;paint-order:normal"
           d="m 217.11192,316.10089 c 12.16681,-54.41403 -10.13314,-95.32055 -61.94196,-124.44196 51.15907,28.93765 76.09417,68.77546 61.94196,124.44196 z"
           id="path13-4" />
        <path
           id="path14-8"
           style="fill:none;stroke:#ffffff;stroke-width:12.2116;stroke-linecap:round;stroke-linejoin:round"
           transform="matrix(-0.97520822,0.22128925,0.41510829,0.90977201,0,0)"
           d="M 21.719896,316.75488 A 23.39325,33.368073 0 0 1 -1.6733534,350.12296 23.39325,33.368073 0 0 1 -25.066603,316.75488 23.39325,33.368073 0 0 1 -1.6733534,283.38681 23.39325,33.368073 0 0 1 21.719896,316.75488 Z" />
      </g>
    </g>
  </g>
</svg>
