<?xml version="1.0" encoding="UTF-8" standalone="no"?>
<!-- Created with Inkscape (http://www.inkscape.org/) -->

<svg
   width="22.722658mm"
   height="24.000002mm"
   viewBox="0 0 22.722658 24.000001"
   version="1.1"
   id="svg7609"
   inkscape:version="1.4.2 (ebf0e940, 2025-05-08)"
   sodipodi:docname="ic_galaxy_buds_3_pro_l.svg"
   xmlns:inkscape="http://www.inkscape.org/namespaces/inkscape"
   xmlns:sodipodi="http://sodipodi.sourceforge.net/DTD/sodipodi-0.dtd"
   xmlns="http://www.w3.org/2000/svg"
   xmlns:svg="http://www.w3.org/2000/svg">
  <sodipodi:namedview
     id="namedview7611"
     pagecolor="#ffffff"
     bordercolor="#666666"
     borderopacity="1.0"
     inkscape:pageshadow="2"
     inkscape:pageopacity="0.0"
     inkscape:pagecheckerboard="0"
     inkscape:document-units="mm"
     showgrid="false"
     fit-margin-left="2"
     fit-margin-right="2"
     fit-margin-bottom="2"
     fit-margin-top="2"
     inkscape:zoom="5.0814255"
     inkscape:cx="49.100395"
     inkscape:cy="41.917371"
     inkscape:window-width="1600"
     inkscape:window-height="781"
     inkscape:window-x="0"
     inkscape:window-y="31"
     inkscape:window-maximized="0"
     inkscape:current-layer="g1"
     inkscape:showpageshadow="2"
     inkscape:deskcolor="#d1d1d1" />
  <defs
     id="defs7606" />
  <g
     inkscape:label="Layer 1"
     inkscape:groupmode="layer"
     id="layer1"
     transform="translate(4.0001844,3.9998056)">
    <g
       id="g1"
       transform="matrix(6.5332593,0,0,6.3507336,16.40368,14.732954)">
      <path
         d="m -1.087598,-2.6574099 c -0.00815,0.0019 -0.038153,0.0087 -0.066675,0.01515 -0.1960096,0.04395 -0.4204449,0.176392 -0.5958149,0.351585 -0.071565,0.07148 -0.1371801,0.155315 -0.1723918,0.220257 -0.01801,0.03319 -0.023114,0.03731 -0.051858,0.04191 -0.050584,0.0081 -0.1806002,0.06693 -0.2480679,0.112288 -0.1014274,0.06819 -0.1726882,0.157538 -0.2177086,0.272997 -0.015232,0.03904 -0.017343,0.05706 -0.017358,0.148166 -1.48e-5,0.09829 0.00124,0.107206 0.023966,0.170392 0.067164,0.186749 0.1847118,0.34417602 0.302645,0.40533902 0.098849,0.05126 0.1418177,0.06127 0.2579803,0.06013 0.09453,-9.33e-4 0.1097767,-0.003 0.1721474,-0.02382 0.082329,-0.02742 0.1524116,-0.06223 0.2153601,-0.106961 l 0.046724,-0.0332 0.071809,0.0037 c 0.049747,0.0026 0.093434,-1.41e-4 0.1421881,-0.0088 0.038708,-0.0069 0.08121,-0.01428 0.094456,-0.01637 l 0.024077,-0.0038 v 0.6747501 0.674744 l 0.022536,0.04652 c 0.012387,0.02559 0.026559,0.05458 0.031485,0.06444 0.010357,0.02074 0.042731,0.04023 0.1010793,0.06089 0.02267,0.008 0.046458,0.0174 0.052858,0.02083 0.00639,0.0034 0.034293,0.01532 0.061993,0.0264 0.071513,0.02861 0.1029314,0.02414 0.1745477,-0.02485 0.1031536,-0.07056 0.1293272,-0.09326 0.1463145,-0.12689 l 0.016669,-0.033 v -0.887955 -0.8879551 l 0.054592,-0.08282 c 0.057785,-0.08765 0.099212,-0.181037 0.1198372,-0.2701 0.014513,-0.0627 0.012224,-0.224265 -0.00407,-0.286851 -0.021795,-0.08372 -0.058518,-0.183 -0.080847,-0.218546 -0.00384,-0.0061 -0.022107,-0.03621 -0.040583,-0.06689 -0.05634,-0.09351 -0.1766517,-0.201714 -0.2674778,-0.240564 -0.095264,-0.04075 -0.1382913,-0.0498 -0.248179,-0.05224 -0.059081,-0.0013 -0.1140883,-7.93e-4 -0.1222375,0.0011"
         style="display:inline;fill:none;fill-rule:evenodd;stroke:#000000;stroke-width:0.185208;stroke-linecap:round;stroke-linejoin:round;stroke-opacity:1"
         id="path1-2-3" />
      <path
         style="display:inline;fill:none;fill-opacity:1;stroke:#000000;stroke-width:0.0926041;stroke-linecap:round;stroke-linejoin:bevel;stroke-dasharray:none;stroke-opacity:1"
         d="m -0.7619586,-1.8845699 v 1.24160402"
         id="path9-4-5" />
      <path
         id="rect10-8"
         style="display:inline;fill:#ffffff;stroke:#000000;stroke-width:0.044028;stroke-linecap:round;stroke-linejoin:round;stroke-opacity:1"
         d="m -0.6078779,-2.0455649 0.071972,-0.09938 c 0.016303,-0.02251 0.00855,-0.04868 -0.017384,-0.05868 -0.025933,-0.01 -0.059935,7.4e-5 -0.076238,0.02259 l -0.071972,0.09938 c -0.016303,0.02251 -0.00855,0.04868 0.017384,0.05868 0.025933,0.01 0.059935,-7.4e-5 0.076238,-0.02258 z" />
      <path
         style="display:inline;fill:#ffffff;fill-opacity:1;stroke:#000000;stroke-width:0.0926041;stroke-linecap:round;stroke-linejoin:round;stroke-dasharray:none;stroke-opacity:1;paint-order:normal"
         d="m -1.4365071,-1.0970779 c 0.090136,-0.403117 -0.07507,-0.706166 -0.4588865,-0.921907 0.3790032,0.214379 0.5637307,0.509511 0.4588865,0.921907 z"
         id="path13-4"
         sodipodi:nodetypes="ccc" />
      <path
         id="path14-8"
         style="display:inline;fill:none;stroke:#000000;stroke-width:0.0895161;stroke-linecap:round;stroke-linejoin:round;stroke-opacity:1"
         d="m -2.2277592,-1.2683579 a 0.25176858,0.16660072 55.660797 0 0 0.2716238,0.186547 0.25176858,0.16660072 55.660797 0 0 0.066393,-0.263248 0.25176858,0.16660072 55.660797 0 0 -0.2716238,-0.186546 0.25176858,0.16660072 55.660797 0 0 -0.066393,0.263247 z" />
      <g
         aria-label="L"
         id="text23582-9"
         style="font-size:7.05556px;line-height:124%;font-family:Sans;-inkscape-font-specification:Sans;letter-spacing:0px;word-spacing:0px;fill:#ffffff;fill-opacity:1;stroke:#000000;stroke-width:0.264583px;stroke-opacity:1"
         transform="matrix(0.25680874,0,0,0.17587676,-3.6154219,-1.7800046)">
        <path
           d="m 5.740478,6.7282383 h 0.8331118 l -0.036823,4.0106167 1.7746367,-0.02331 v 1.144028 l -2.5954745,0.02331 z"
           id="path24331-4"
           style="fill:#000000;fill-opacity:1;stroke:#000000;stroke-width:0;stroke-miterlimit:5.8;stroke-dasharray:none;stroke-opacity:1"
           sodipodi:nodetypes="ccccccc" />
      </g>
    </g>
  </g>
</svg>
